<svg width="26" height="28" viewBox="0 0 26 28" fill="none" xmlns="http://www.w3.org/2000/svg">
<path d="M8.69637 21.7328C8.69637 21.8422 8.57581 21.9297 8.42379 21.9297C8.25081 21.9461 8.13024 21.8586 8.13024 21.7328C8.13024 21.6234 8.25081 21.5359 8.40282 21.5359C8.56008 21.5195 8.69637 21.607 8.69637 21.7328ZM7.06613 21.4867C7.02944 21.5961 7.13427 21.7219 7.29153 21.7547C7.42782 21.8094 7.58508 21.7547 7.61653 21.6453C7.64798 21.5359 7.54839 21.4102 7.39113 21.3609C7.25484 21.3227 7.10282 21.3773 7.06613 21.4867ZM9.38306 21.3938C9.23105 21.432 9.12621 21.5359 9.14194 21.6617C9.15766 21.7711 9.29395 21.8422 9.45121 21.8039C9.60323 21.7656 9.70806 21.6617 9.69234 21.5523C9.67661 21.4484 9.53508 21.3773 9.38306 21.3938ZM12.8323 0.4375C5.56169 0.4375 0 6.19609 0 13.7812C0 19.8461 3.65887 25.0359 8.88508 26.8625C9.55605 26.9883 9.79193 26.5562 9.79193 26.2008C9.79193 25.8617 9.77621 23.9914 9.77621 22.843C9.77621 22.843 6.10685 23.6633 5.33629 21.2133C5.33629 21.2133 4.73871 19.6219 3.87903 19.2117C3.87903 19.2117 2.67863 18.3531 3.9629 18.3695C3.9629 18.3695 5.26815 18.4789 5.98629 19.7805C7.13427 21.8914 9.05806 21.2844 9.80766 20.9234C9.92823 20.0484 10.269 19.4414 10.6464 19.0805C7.71613 18.7414 4.75968 18.2984 4.75968 13.0375C4.75968 11.5336 5.15806 10.7789 5.99677 9.81641C5.86048 9.46094 5.41492 7.99531 6.13306 6.10313C7.22863 5.74766 9.75 7.57969 9.75 7.57969C10.7984 7.27344 11.9254 7.11484 13.0419 7.11484C14.1585 7.11484 15.2855 7.27344 16.3339 7.57969C16.3339 7.57969 18.8552 5.74219 19.9508 6.10313C20.669 8.00078 20.2234 9.46094 20.0871 9.81641C20.9258 10.7844 21.4395 11.5391 21.4395 13.0375C21.4395 18.3148 18.352 18.7359 15.4218 19.0805C15.904 19.5125 16.3129 20.3328 16.3129 21.618C16.3129 23.4609 16.2972 25.7414 16.2972 26.1898C16.2972 26.5453 16.5383 26.9773 17.204 26.8516C22.446 25.0359 26 19.8461 26 13.7812C26 6.19609 20.1028 0.4375 12.8323 0.4375ZM5.09516 19.2992C5.02702 19.3539 5.04274 19.4797 5.13185 19.5836C5.21573 19.6711 5.33629 19.7094 5.40444 19.6383C5.47258 19.5836 5.45685 19.4578 5.36774 19.3539C5.28387 19.2664 5.16331 19.2281 5.09516 19.2992ZM4.52903 18.8562C4.49234 18.9273 4.54476 19.0148 4.6496 19.0695C4.73347 19.1242 4.83831 19.1078 4.875 19.0312C4.91169 18.9602 4.85927 18.8727 4.75444 18.818C4.6496 18.7852 4.56573 18.8016 4.52903 18.8562ZM6.22742 20.8031C6.14355 20.8742 6.175 21.0383 6.29556 21.1422C6.41613 21.268 6.56814 21.2844 6.63629 21.1969C6.70444 21.1258 6.67298 20.9617 6.56815 20.8578C6.45282 20.732 6.29556 20.7156 6.22742 20.8031ZM5.62984 19.9992C5.54597 20.0539 5.54597 20.1961 5.62984 20.3219C5.71371 20.4477 5.85524 20.5023 5.92339 20.4477C6.00726 20.3766 6.00726 20.2344 5.92339 20.1086C5.85 19.9828 5.71371 19.9281 5.62984 19.9992Z" fill="url(#paint0_linear)"/>
<defs>
<linearGradient id="paint0_linear" x1="2.63881" y1="0.437507" x2="20.2847" y2="1.18255" gradientUnits="userSpaceOnUse">
<stop stop-color="#096635"/>
<stop offset="1" stop-color="#2BA665"/>
</linearGradient>
</defs>
</svg>
