<svg width="26" height="26" viewBox="0 0 26 26" fill="none" xmlns="http://www.w3.org/2000/svg">
<path d="M13.0058 6.71099C9.31469 6.71099 6.33746 9.51645 6.33746 12.9946C6.33746 16.4727 9.31469 19.2782 13.0058 19.2782C16.6968 19.2782 19.6741 16.4727 19.6741 12.9946C19.6741 9.51645 16.6968 6.71099 13.0058 6.71099ZM13.0058 17.0797C10.6205 17.0797 8.67049 15.2477 8.67049 12.9946C8.67049 10.7415 10.6147 8.90942 13.0058 8.90942C15.3968 8.90942 17.341 10.7415 17.341 12.9946C17.341 15.2477 15.391 17.0797 13.0058 17.0797ZM21.5022 6.45395C21.5022 7.2688 20.8058 7.91958 19.9468 7.91958C19.0821 7.91958 18.3915 7.26333 18.3915 6.45395C18.3915 5.64458 19.0879 4.98833 19.9468 4.98833C20.8058 4.98833 21.5022 5.64458 21.5022 6.45395ZM25.9187 7.94145C25.82 5.97817 25.3442 4.23911 23.8178 2.8063C22.2973 1.37349 20.4517 0.925049 18.3683 0.826611C16.2209 0.711768 9.78478 0.711768 7.63746 0.826611C5.55978 0.91958 3.71424 1.36802 2.1879 2.80083C0.661565 4.23364 0.191476 5.9727 0.0870117 7.93599C-0.0348633 9.95942 -0.0348633 16.0243 0.0870117 18.0477C0.185672 20.011 0.661565 21.75 2.1879 23.1829C3.71424 24.6157 5.55398 25.0641 7.63746 25.1625C9.78478 25.2774 16.2209 25.2774 18.3683 25.1625C20.4517 25.0696 22.2973 24.6211 23.8178 23.1829C25.3384 21.75 25.8142 20.011 25.9187 18.0477C26.0406 16.0243 26.0406 9.96489 25.9187 7.94145ZM23.1446 20.2188C22.6919 21.2907 21.8156 22.1165 20.6723 22.5485C18.9602 23.1883 14.8977 23.0407 13.0058 23.0407C11.1138 23.0407 7.04549 23.1829 5.33924 22.5485C4.20174 22.1219 3.3254 21.2961 2.86692 20.2188C2.1879 18.6055 2.3446 14.7774 2.3446 12.9946C2.3446 11.2118 2.19371 7.37817 2.86692 5.77036C3.3196 4.69849 4.19594 3.8727 5.33924 3.44067C7.0513 2.80083 11.1138 2.94849 13.0058 2.94849C14.8977 2.94849 18.966 2.8063 20.6723 3.44067C21.8098 3.86724 22.6861 4.69302 23.1446 5.77036C23.8236 7.38364 23.6669 11.2118 23.6669 12.9946C23.6669 14.7774 23.8236 18.611 23.1446 20.2188Z" fill="url(#paint0_linear)"/>
<defs>
<linearGradient id="paint0_linear" x1="-0.946949" y1="12.2738" x2="26.9527" y2="12.2738" gradientUnits="userSpaceOnUse">
<stop stop-color="#1C4B73"/>
<stop offset="1" stop-color="#4388C4"/>
</linearGradient>
</defs>
</svg>
