<svg width="26" height="28" viewBox="0 0 26 28" fill="none" xmlns="http://www.w3.org/2000/svg">
<g clip-path="url(#clip0)">
<path d="M13.0058 7.71099C9.31469 7.71099 6.33746 10.5165 6.33746 13.9946C6.33746 17.4727 9.31469 20.2782 13.0058 20.2782C16.6968 20.2782 19.6741 17.4727 19.6741 13.9946C19.6741 10.5165 16.6968 7.71099 13.0058 7.71099ZM13.0058 18.0797C10.6205 18.0797 8.67049 16.2477 8.67049 13.9946C8.67049 11.7415 10.6147 9.90942 13.0058 9.90942C15.3968 9.90942 17.341 11.7415 17.341 13.9946C17.341 16.2477 15.391 18.0797 13.0058 18.0797ZM21.5022 7.45395C21.5022 8.2688 20.8058 8.91958 19.9468 8.91958C19.0821 8.91958 18.3915 8.26333 18.3915 7.45395C18.3915 6.64458 19.0879 5.98833 19.9468 5.98833C20.8058 5.98833 21.5022 6.64458 21.5022 7.45395ZM25.9187 8.94145C25.82 6.97817 25.3442 5.23911 23.8178 3.8063C22.2973 2.37349 20.4517 1.92505 18.3683 1.82661C16.2209 1.71177 9.78478 1.71177 7.63746 1.82661C5.55978 1.91958 3.71424 2.36802 2.1879 3.80083C0.661565 5.23364 0.191476 6.9727 0.0870117 8.93599C-0.0348633 10.9594 -0.0348633 17.0243 0.0870117 19.0477C0.185672 21.011 0.661565 22.75 2.1879 24.1829C3.71424 25.6157 5.55398 26.0641 7.63746 26.1625C9.78478 26.2774 16.2209 26.2774 18.3683 26.1625C20.4517 26.0696 22.2973 25.6211 23.8178 24.1829C25.3384 22.75 25.8142 21.011 25.9187 19.0477C26.0406 17.0243 26.0406 10.9649 25.9187 8.94145ZM23.1446 21.2188C22.6919 22.2907 21.8156 23.1165 20.6723 23.5485C18.9602 24.1883 14.8977 24.0407 13.0058 24.0407C11.1138 24.0407 7.04549 24.1829 5.33924 23.5485C4.20174 23.1219 3.3254 22.2961 2.86692 21.2188C2.1879 19.6055 2.3446 15.7774 2.3446 13.9946C2.3446 12.2118 2.19371 8.37817 2.86692 6.77036C3.3196 5.69849 4.19594 4.8727 5.33924 4.44067C7.0513 3.80083 11.1138 3.94849 13.0058 3.94849C14.8977 3.94849 18.966 3.8063 20.6723 4.44067C21.8098 4.86724 22.6861 5.69302 23.1446 6.77036C23.8236 8.38364 23.6669 12.2118 23.6669 13.9946C23.6669 15.7774 23.8236 19.611 23.1446 21.2188Z" fill="url(#paint0_linear)"/>
</g>
<defs>
<linearGradient id="paint0_linear" x1="2.63588" y1="1.74048" x2="20.2864" y2="2.54514" gradientUnits="userSpaceOnUse">
<stop stop-color="#096635"/>
<stop offset="1" stop-color="#2BA665"/>
</linearGradient>
<clipPath id="clip0">
<rect width="26" height="28" fill="white"/>
</clipPath>
</defs>
</svg>
