<svg width="72" height="72" viewBox="0 0 72 72" fill="none" xmlns="http://www.w3.org/2000/svg">
<path d="M27.0011 1.248C27.4404 1.78178 27.7095 2.43502 27.7737 3.12333C27.8379 3.81164 27.6942 4.50337 27.3611 5.10916C24.7594 9.886 23.4007 15.2404 23.41 20.6798C23.41 38.7751 38.1616 53.4277 56.3423 53.4277C58.7139 53.4277 61.0225 53.1802 63.2411 52.7076C63.9212 52.5604 64.6296 52.6167 65.2779 52.8696C65.9262 53.1225 66.4856 53.5608 66.8863 54.1297C67.3093 54.7213 67.5249 55.436 67.4997 56.1628C67.4744 56.8895 67.2098 57.5876 66.7468 58.1484C63.2172 62.484 58.7646 65.9773 53.7135 68.3736C48.6624 70.7699 43.1402 72.0088 37.5496 72C16.8037 72 0 55.2863 0 34.6934C0 19.1948 9.5134 5.90119 23.059 0.26696C23.7337 -0.0182087 24.4828 -0.0767383 25.1936 0.100163C25.9045 0.277065 26.5387 0.679846 27.0011 1.248ZM21.8619 5.89669C16.6534 8.69054 12.2992 12.8434 9.26198 17.9138C6.22477 22.9843 4.6181 28.7829 4.61269 34.6934C4.61269 52.7841 19.3688 67.4368 37.5496 67.4368C41.9032 67.4443 46.2152 66.5883 50.2358 64.9182C54.2565 63.2482 57.9059 60.7973 60.973 57.7074C59.4565 57.8964 57.9129 57.9909 56.3423 57.9909C35.5965 57.9909 18.7973 41.2772 18.7973 20.6843C18.7973 15.4326 19.8863 10.4329 21.8619 5.89669Z" fill="url(#paint0_linear)"/>
<path d="M48.575 14.1649C48.6396 13.97 48.7639 13.8004 48.9303 13.6802C49.0967 13.56 49.2968 13.4953 49.5021 13.4953C49.7074 13.4953 49.9074 13.56 50.0738 13.6802C50.2403 13.8004 50.3646 13.97 50.4291 14.1649L52.1707 19.3941C52.9492 21.7252 54.7763 23.5523 57.1074 24.3308L62.3366 26.0724C62.5315 26.1369 62.7011 26.2612 62.8213 26.4277C62.9415 26.5941 63.0062 26.7941 63.0062 26.9994C63.0062 27.2047 62.9415 27.4048 62.8213 27.5712C62.7011 27.7376 62.5315 27.8619 62.3366 27.9265L57.1074 29.668C55.9577 30.0511 54.913 30.6966 54.0561 31.5535C53.1993 32.4104 52.5537 33.4551 52.1707 34.6047L50.4291 39.834C50.3646 40.0289 50.2403 40.1984 50.0738 40.3186C49.9074 40.4388 49.7074 40.5035 49.5021 40.5035C49.2968 40.5035 49.0967 40.4388 48.9303 40.3186C48.7639 40.1984 48.6396 40.0289 48.575 39.834L46.8334 34.6047C46.4504 33.4551 45.8049 32.4104 44.948 31.5535C44.0911 30.6966 43.0464 30.0511 41.8967 29.668L36.6675 27.9265C36.4726 27.8619 36.3031 27.7376 36.1829 27.5712C36.0627 27.4048 35.998 27.2047 35.998 26.9994C35.998 26.7941 36.0627 26.5941 36.1829 26.4277C36.3031 26.2612 36.4726 26.1369 36.6675 26.0724L41.8967 24.3308C43.0464 23.9478 44.0911 23.3022 44.948 22.4454C45.8049 21.5885 46.4504 20.5438 46.8334 19.3941L48.575 14.1649ZM62.3861 0.443823C62.4305 0.315686 62.5138 0.204575 62.6243 0.125937C62.7348 0.0472991 62.867 0.00504272 63.0026 0.00504272C63.1382 0.00504272 63.2705 0.0472991 63.381 0.125937C63.4915 0.204575 63.5747 0.315686 63.6191 0.443823L64.7802 3.92697C65.2977 5.48403 66.5173 6.70358 68.0743 7.22111L71.5575 8.38215C71.6856 8.42658 71.7967 8.50982 71.8754 8.62032C71.954 8.73081 71.9963 8.86306 71.9963 8.99868C71.9963 9.1343 71.954 9.26655 71.8754 9.37704C71.7967 9.48753 71.6856 9.57078 71.5575 9.61521L68.0743 10.7763C67.307 11.0315 66.6097 11.4622 66.0379 12.034C65.4661 12.6058 65.0355 13.3031 64.7802 14.0704L63.6191 17.5535C63.5747 17.6817 63.4915 17.7928 63.381 17.8714C63.2705 17.9501 63.1382 17.9923 63.0026 17.9923C62.867 17.9923 62.7348 17.9501 62.6243 17.8714C62.5138 17.7928 62.4305 17.6817 62.3861 17.5535L61.225 14.0704C60.9698 13.3031 60.5391 12.6058 59.9673 12.034C59.3955 11.4622 58.6982 11.0315 57.9309 10.7763L54.4478 9.61521C54.3196 9.57078 54.2085 9.48753 54.1299 9.37704C54.0512 9.26655 54.009 9.1343 54.009 8.99868C54.009 8.86306 54.0512 8.73081 54.1299 8.62032C54.2085 8.50982 54.3196 8.42658 54.4478 8.38215L57.9309 7.22111C59.488 6.70358 60.7075 5.48403 61.225 3.92697L62.3861 0.448323V0.443823Z" fill="url(#paint1_linear)"/>
<defs>
<linearGradient id="paint0_linear" x1="-2.60856" y1="33.8824" x2="74.6048" y2="33.8824" gradientUnits="userSpaceOnUse">
<stop stop-color="#3480C1"/>
<stop offset="1" stop-color="#0DCA4F"/>
</linearGradient>
<linearGradient id="paint1_linear" x1="-2.60856" y1="33.8824" x2="74.6048" y2="33.8824" gradientUnits="userSpaceOnUse">
<stop stop-color="#3480C1"/>
<stop offset="1" stop-color="#0DCA4F"/>
</linearGradient>
</defs>
</svg>
