<svg width="278" height="82" viewBox="0 0 278 82" fill="none" xmlns="http://www.w3.org/2000/svg">
<path d="M0 22.6287C0 12.4826 7.6417 4.22831 17.5118 4.22831V0L29.5512 6.09459L17.5118 12.1892V8.31081C9.83505 8.31081 3.97143 14.7373 3.97143 22.6287V59.3713C3.97143 67.2627 10.1947 73.66 17.8714 73.66H236.3V77.7425H17.8714C8.0013 77.7425 0 69.5174 0 59.3713V22.6287Z" fill="url(#paint0_linear)"/>
<path d="M278 59.3713C278 69.5174 270.358 77.7425 260.488 77.7425V82L249.543 75.9054L260.488 69.2568V73.66C268.165 73.66 274.029 67.2627 274.029 59.3713V22.6288C274.029 14.7373 267.805 8.34001 260.129 8.34001L41.7 8.33999V4.25749L260.129 4.25751C269.999 4.25751 278 12.4826 278 22.6288V59.3713Z" fill="url(#paint1_linear)"/>
<path d="M21.8898 56.9203V24.3784H35.8041C38.1311 24.3784 40.1394 24.7992 41.8289 25.6408C43.7734 26.6071 45.3194 27.9942 46.467 29.802C47.6146 31.5788 48.1884 33.5425 48.1884 35.6932C48.1884 37.844 47.6146 39.8233 46.467 41.6312C45.3513 43.4391 43.8212 44.8262 41.8767 45.7925C40.2191 46.6341 38.1949 47.0549 35.8041 47.0549H30.5922V56.9203H21.8898Z" fill="url(#paint2_linear)"/>
<path d="M58.0496 56.9203V24.3784H59.8188V55.1903H83.0094V56.9203H58.0496Z" fill="url(#paint3_linear)"/>
<path d="M102.816 24.3784H104.681L118.356 56.9203H116.444L111.949 46.1665H95.5483L91.0058 56.9203H89.141L102.816 24.3784ZM96.2655 44.4833H111.232L103.725 26.6227L96.2655 44.4833Z" fill="url(#paint4_linear)"/>
<path d="M152.556 24.3784V26.1083H139.98V56.9203H138.259V26.1083H125.683V24.3784H152.556Z" fill="url(#paint5_linear)"/>
<path d="M161.078 24.3784H162.847V44.4833C162.847 46.5406 163.373 48.4419 164.425 50.1875C165.477 51.933 166.896 53.3201 168.681 54.3487C170.466 55.3774 172.41 55.8917 174.514 55.8917C176.618 55.8917 178.563 55.3774 180.348 54.3487C182.133 53.3201 183.551 51.933 184.603 50.1875C185.655 48.4419 186.181 46.5406 186.181 44.4833V24.3784H187.951V44.4833C187.951 46.8523 187.345 49.0498 186.134 51.0758C184.922 53.0708 183.281 54.6604 181.208 55.8449C179.168 57.0294 176.937 57.6216 174.514 57.6216C172.092 57.6216 169.844 57.0294 167.772 55.8449C165.732 54.6604 164.106 53.0708 162.895 51.0758C161.684 49.0498 161.078 46.8523 161.078 44.4833V24.3784Z" fill="url(#paint6_linear)"/>
<path d="M216.603 25.3135C218.102 26.0616 219.249 27.0902 220.046 28.3994C220.875 29.7085 221.289 31.1735 221.289 32.7944C221.289 34.3218 220.875 35.74 220.046 37.0492C219.249 38.3271 218.133 39.3402 216.699 40.0883C218.388 40.6493 219.791 41.678 220.907 43.1741C222.022 44.6703 222.58 46.3224 222.58 48.1302C222.58 49.7511 222.166 51.2473 221.337 52.6188C220.508 53.9903 219.408 55.0501 218.038 55.7982C217.336 56.1722 216.555 56.4527 215.695 56.6398C214.834 56.8268 213.687 56.9203 212.252 56.9203H198.29V24.3784H211.583C213.687 24.3784 215.36 24.6901 216.603 25.3135ZM215.838 38.7324C216.986 38.1713 217.894 37.3609 218.564 36.3011C219.233 35.2413 219.568 34.0724 219.568 32.7944C219.568 31.3606 219.185 30.1137 218.42 29.054C217.655 27.963 216.683 27.1681 215.504 26.6694C214.611 26.2954 213.113 26.1083 211.009 26.1083H200.011V39.4805H211.87C213.527 39.4805 214.85 39.2311 215.838 38.7324ZM216.986 54.489C218.165 53.8968 219.106 53.0396 219.807 51.9174C220.508 50.7641 220.859 49.5173 220.859 48.177C220.859 46.7743 220.492 45.5119 219.759 44.3898C219.026 43.2365 218.038 42.3793 216.795 41.8182C215.838 41.3818 214.547 41.1637 212.921 41.1637H200.011V55.2371H212.3C213.511 55.2371 214.468 55.1748 215.169 55.0501C215.87 54.9254 216.476 54.7384 216.986 54.489Z" fill="url(#paint7_linear)"/>
<path d="M256.11 24.3784V26.1083H246.165V55.1903H256.11V56.9203H234.545V55.1903H244.443V26.1083H234.545V24.3784H256.11Z" fill="url(#paint8_linear)"/>
<defs>
<linearGradient id="paint0_linear" x1="-10.0725" y1="38.5883" x2="288.072" y2="38.5883" gradientUnits="userSpaceOnUse">
<stop stop-color="#3480C1"/>
<stop offset="1" stop-color="#0DCA4F"/>
</linearGradient>
<linearGradient id="paint1_linear" x1="-10.0725" y1="38.5883" x2="288.072" y2="38.5883" gradientUnits="userSpaceOnUse">
<stop stop-color="#3480C1"/>
<stop offset="1" stop-color="#0DCA4F"/>
</linearGradient>
<linearGradient id="paint2_linear" x1="-10.0725" y1="38.5883" x2="288.072" y2="38.5883" gradientUnits="userSpaceOnUse">
<stop stop-color="#3480C1"/>
<stop offset="1" stop-color="#0DCA4F"/>
</linearGradient>
<linearGradient id="paint3_linear" x1="-10.0725" y1="38.5883" x2="288.072" y2="38.5883" gradientUnits="userSpaceOnUse">
<stop stop-color="#3480C1"/>
<stop offset="1" stop-color="#0DCA4F"/>
</linearGradient>
<linearGradient id="paint4_linear" x1="-10.0725" y1="38.5883" x2="288.072" y2="38.5883" gradientUnits="userSpaceOnUse">
<stop stop-color="#3480C1"/>
<stop offset="1" stop-color="#0DCA4F"/>
</linearGradient>
<linearGradient id="paint5_linear" x1="-10.0725" y1="38.5883" x2="288.072" y2="38.5883" gradientUnits="userSpaceOnUse">
<stop stop-color="#3480C1"/>
<stop offset="1" stop-color="#0DCA4F"/>
</linearGradient>
<linearGradient id="paint6_linear" x1="-10.0725" y1="38.5883" x2="288.072" y2="38.5883" gradientUnits="userSpaceOnUse">
<stop stop-color="#3480C1"/>
<stop offset="1" stop-color="#0DCA4F"/>
</linearGradient>
<linearGradient id="paint7_linear" x1="-10.0725" y1="38.5883" x2="288.072" y2="38.5883" gradientUnits="userSpaceOnUse">
<stop stop-color="#3480C1"/>
<stop offset="1" stop-color="#0DCA4F"/>
</linearGradient>
<linearGradient id="paint8_linear" x1="-10.0725" y1="38.5883" x2="288.072" y2="38.5883" gradientUnits="userSpaceOnUse">
<stop stop-color="#3480C1"/>
<stop offset="1" stop-color="#0DCA4F"/>
</linearGradient>
</defs>
</svg>
