<svg width="38" height="38" viewBox="0 0 38 38" fill="none" xmlns="http://www.w3.org/2000/svg">
<path d="M34.8333 31.6778C34.8304 32.0936 34.6641 32.4916 34.3702 32.7857C34.0763 33.0799 33.6785 33.2467 33.2627 33.25H4.73733C4.32062 33.2496 3.92112 33.0837 3.62661 32.7889C3.3321 32.4941 3.16667 32.0945 3.16667 31.6778V30.0833H31.6667V11.5583L19 22.9583L3.16667 8.70833V6.33333C3.16667 5.91341 3.33348 5.51068 3.63041 5.21375C3.92735 4.91681 4.33007 4.75 4.75 4.75H33.25C33.6699 4.75 34.0727 4.91681 34.3696 5.21375C34.6665 5.51068 34.8333 5.91341 34.8333 6.33333V31.6778ZM7.0205 7.91667L19 18.6992L30.9795 7.91667H7.0205ZM0 23.75H12.6667V26.9167H0V23.75ZM0 15.8333H7.91667V19H0V15.8333Z" fill="url(#paint0_linear)"/>
<defs>
<linearGradient id="paint0_linear" x1="-1.26208" y1="18.1618" x2="36.0954" y2="18.1618" gradientUnits="userSpaceOnUse">
<stop stop-color="#1B73BE"/>
<stop offset="1" stop-color="#0DCA4F"/>
</linearGradient>
</defs>
</svg>
