<svg width="24" height="24" viewBox="0 0 24 24" fill="none" xmlns="http://www.w3.org/2000/svg">
<path d="M0.912611 0.818436C1.03398 0.715459 1.18292 0.650398 1.34094 0.631332C1.49897 0.612265 1.65911 0.640032 1.80149 0.711186L22.9265 11.2737C23.0613 11.3412 23.1746 11.445 23.2538 11.5732C23.333 11.7015 23.3749 11.8493 23.3749 12.0001C23.3749 12.1508 23.333 12.2986 23.2538 12.4269C23.1746 12.5552 23.0613 12.6589 22.9265 12.7264L1.80149 23.2889C1.6592 23.3603 1.4991 23.3883 1.34106 23.3694C1.18301 23.3505 1.03399 23.2857 0.912481 23.1829C0.790976 23.0801 0.702345 22.9438 0.65759 22.7911C0.612836 22.6383 0.613929 22.4758 0.660736 22.3237L3.83761 12.0001L0.660736 1.67644C0.614197 1.52446 0.613254 1.36217 0.658024 1.20967C0.702793 1.05716 0.791309 0.921138 0.912611 0.818436ZM5.28711 12.8126L2.77324 20.9863L20.7457 12.0001L2.77324 3.01381L5.28711 11.1876H14.4375C14.653 11.1876 14.8596 11.2732 15.012 11.4255C15.1644 11.5779 15.25 11.7846 15.25 12.0001C15.25 12.2155 15.1644 12.4222 15.012 12.5746C14.8596 12.727 14.653 12.8126 14.4375 12.8126H5.28874H5.28711Z" fill="#EDEDED"/>
</svg>
