<svg width="68" height="90" viewBox="0 0 68 90" fill="none" xmlns="http://www.w3.org/2000/svg">
<path d="M56.25 5.625C57.7418 5.625 59.1726 6.21763 60.2275 7.27252C61.2824 8.32742 61.875 9.75816 61.875 11.25V78.75C61.875 80.2418 61.2824 81.6726 60.2275 82.7275C59.1726 83.7824 57.7418 84.375 56.25 84.375H11.25C9.75816 84.375 8.32742 83.7824 7.27252 82.7275C6.21763 81.6726 5.625 80.2418 5.625 78.75V11.25C5.625 9.75816 6.21763 8.32742 7.27252 7.27252C8.32742 6.21763 9.75816 5.625 11.25 5.625H56.25ZM11.25 0C8.26631 0 5.40483 1.18526 3.29505 3.29505C1.18526 5.40483 0 8.26631 0 11.25V78.75C0 81.7337 1.18526 84.5952 3.29505 86.7049C5.40483 88.8147 8.26631 90 11.25 90H56.25C59.2337 90 62.0952 88.8147 64.2049 86.7049C66.3147 84.5952 67.5 81.7337 67.5 78.75V11.25C67.5 8.26631 66.3147 5.40483 64.2049 3.29505C62.0952 1.18526 59.2337 0 56.25 0H11.25Z" fill="url(#paint0_linear)"/>
<path d="M11.25 14.0625C11.25 13.3166 11.5463 12.6012 12.0738 12.0738C12.6012 11.5463 13.3166 11.25 14.0625 11.25H53.4375C54.1834 11.25 54.8988 11.5463 55.4262 12.0738C55.9537 12.6012 56.25 13.3166 56.25 14.0625V25.3125C56.25 26.0584 55.9537 26.7738 55.4262 27.3012C54.8988 27.8287 54.1834 28.125 53.4375 28.125H14.0625C13.3166 28.125 12.6012 27.8287 12.0738 27.3012C11.5463 26.7738 11.25 26.0584 11.25 25.3125V14.0625ZM11.25 36.5625C11.25 35.8166 11.5463 35.1012 12.0738 34.5738C12.6012 34.0463 13.3166 33.75 14.0625 33.75H19.6875C20.4334 33.75 21.1488 34.0463 21.6762 34.5738C22.2037 35.1012 22.5 35.8166 22.5 36.5625V42.1875C22.5 42.9334 22.2037 43.6488 21.6762 44.1762C21.1488 44.7037 20.4334 45 19.6875 45H14.0625C13.3166 45 12.6012 44.7037 12.0738 44.1762C11.5463 43.6488 11.25 42.9334 11.25 42.1875V36.5625ZM11.25 53.4375C11.25 52.6916 11.5463 51.9762 12.0738 51.4488C12.6012 50.9213 13.3166 50.625 14.0625 50.625H19.6875C20.4334 50.625 21.1488 50.9213 21.6762 51.4488C22.2037 51.9762 22.5 52.6916 22.5 53.4375V59.0625C22.5 59.8084 22.2037 60.5238 21.6762 61.0512C21.1488 61.5787 20.4334 61.875 19.6875 61.875H14.0625C13.3166 61.875 12.6012 61.5787 12.0738 61.0512C11.5463 60.5238 11.25 59.8084 11.25 59.0625V53.4375ZM11.25 70.3125C11.25 69.5666 11.5463 68.8512 12.0738 68.3238C12.6012 67.7963 13.3166 67.5 14.0625 67.5H19.6875C20.4334 67.5 21.1488 67.7963 21.6762 68.3238C22.2037 68.8512 22.5 69.5666 22.5 70.3125V75.9375C22.5 76.6834 22.2037 77.3988 21.6762 77.9262C21.1488 78.4537 20.4334 78.75 19.6875 78.75H14.0625C13.3166 78.75 12.6012 78.4537 12.0738 77.9262C11.5463 77.3988 11.25 76.6834 11.25 75.9375V70.3125ZM28.125 36.5625C28.125 35.8166 28.4213 35.1012 28.9488 34.5738C29.4762 34.0463 30.1916 33.75 30.9375 33.75H36.5625C37.3084 33.75 38.0238 34.0463 38.5512 34.5738C39.0787 35.1012 39.375 35.8166 39.375 36.5625V42.1875C39.375 42.9334 39.0787 43.6488 38.5512 44.1762C38.0238 44.7037 37.3084 45 36.5625 45H30.9375C30.1916 45 29.4762 44.7037 28.9488 44.1762C28.4213 43.6488 28.125 42.9334 28.125 42.1875V36.5625ZM28.125 53.4375C28.125 52.6916 28.4213 51.9762 28.9488 51.4488C29.4762 50.9213 30.1916 50.625 30.9375 50.625H36.5625C37.3084 50.625 38.0238 50.9213 38.5512 51.4488C39.0787 51.9762 39.375 52.6916 39.375 53.4375V59.0625C39.375 59.8084 39.0787 60.5238 38.5512 61.0512C38.0238 61.5787 37.3084 61.875 36.5625 61.875H30.9375C30.1916 61.875 29.4762 61.5787 28.9488 61.0512C28.4213 60.5238 28.125 59.8084 28.125 59.0625V53.4375ZM28.125 70.3125C28.125 69.5666 28.4213 68.8512 28.9488 68.3238C29.4762 67.7963 30.1916 67.5 30.9375 67.5H36.5625C37.3084 67.5 38.0238 67.7963 38.5512 68.3238C39.0787 68.8512 39.375 69.5666 39.375 70.3125V75.9375C39.375 76.6834 39.0787 77.3988 38.5512 77.9262C38.0238 78.4537 37.3084 78.75 36.5625 78.75H30.9375C30.1916 78.75 29.4762 78.4537 28.9488 77.9262C28.4213 77.3988 28.125 76.6834 28.125 75.9375V70.3125ZM45 36.5625C45 35.8166 45.2963 35.1012 45.8238 34.5738C46.3512 34.0463 47.0666 33.75 47.8125 33.75H53.4375C54.1834 33.75 54.8988 34.0463 55.4262 34.5738C55.9537 35.1012 56.25 35.8166 56.25 36.5625V42.1875C56.25 42.9334 55.9537 43.6488 55.4262 44.1762C54.8988 44.7037 54.1834 45 53.4375 45H47.8125C47.0666 45 46.3512 44.7037 45.8238 44.1762C45.2963 43.6488 45 42.9334 45 42.1875V36.5625ZM45 53.4375C45 52.6916 45.2963 51.9762 45.8238 51.4488C46.3512 50.9213 47.0666 50.625 47.8125 50.625H53.4375C54.1834 50.625 54.8988 50.9213 55.4262 51.4488C55.9537 51.9762 56.25 52.6916 56.25 53.4375V75.9375C56.25 76.6834 55.9537 77.3988 55.4262 77.9262C54.8988 78.4537 54.1834 78.75 53.4375 78.75H47.8125C47.0666 78.75 46.3512 78.4537 45.8238 77.9262C45.2963 77.3988 45 76.6834 45 75.9375V53.4375Z" fill="url(#paint1_linear)"/>
<defs>
<linearGradient id="paint0_linear" x1="-2.44565" y1="42.353" x2="69.9457" y2="42.353" gradientUnits="userSpaceOnUse">
<stop stop-color="#3480C1"/>
<stop offset="1" stop-color="#0DCA4F"/>
</linearGradient>
<linearGradient id="paint1_linear" x1="-2.44565" y1="42.353" x2="69.9457" y2="42.353" gradientUnits="userSpaceOnUse">
<stop stop-color="#3480C1"/>
<stop offset="1" stop-color="#0DCA4F"/>
</linearGradient>
</defs>
</svg>
