<svg width="244" height="322" viewBox="0 0 244 322" fill="none" xmlns="http://www.w3.org/2000/svg">
<path d="M9.14307 210.227L42.0345 6.24561C43.1714 -0.710961 52.8135 -2.35451 56.217 3.86414L91.5693 67.8954L9.14307 210.227ZM244 257.601L211.601 71.9205C211.366 70.5932 210.76 69.3535 209.849 68.3356C208.938 67.3177 207.757 66.5605 206.433 66.1459C205.109 65.7313 203.693 65.6751 202.339 65.9835C200.984 66.2919 199.743 66.9531 198.749 67.8954L0 257.601L110.465 319.258C113.855 321.057 117.659 322 121.525 322C125.391 322 129.195 321.057 132.585 319.258L244 257.601ZM154.136 95.8827L128.807 49.2328C128.177 48.0344 127.217 47.028 126.033 46.3251C124.848 45.6222 123.486 45.2501 122.097 45.2501C120.708 45.2501 119.346 45.6222 118.161 46.3251C116.977 47.028 116.017 48.0344 115.387 49.2328L4.04125 241.327L154.136 95.8827Z" fill="url(#paint0_linear)"/>
<defs>
<linearGradient id="paint0_linear" x1="-8.84058" y1="151.53" x2="252.841" y2="151.53" gradientUnits="userSpaceOnUse">
<stop stop-color="#3480C1"/>
<stop offset="1" stop-color="#0DCA4F"/>
</linearGradient>
</defs>
</svg>
