<svg width="72" height="72" viewBox="0 0 72 72" fill="none" xmlns="http://www.w3.org/2000/svg">
<path d="M36 15.0469C30.1875 15.0469 25.2422 17.0859 21.1641 21.1641C17.0859 25.2422 15.0469 30.1875 15.0469 36C15.0469 41.8125 17.0859 46.7578 21.1641 50.8359C25.2422 54.9141 30.1875 56.9531 36 56.9531C41.8125 56.9531 46.7578 54.9141 50.8359 50.8359C54.9141 46.7578 56.9531 41.8125 56.9531 36C56.9531 30.1875 54.9141 25.2422 50.8359 21.1641C46.7578 17.0859 41.8125 15.0469 36 15.0469ZM36 51.0469C31.7812 51.0469 28.2187 49.5937 25.3125 46.6875C22.4063 43.7813 20.9531 40.2188 20.9531 36C20.9531 31.7812 22.4063 28.2187 25.3125 25.3125C28.2187 22.4063 31.7812 20.9531 36 20.9531C40.2188 20.9531 43.7813 22.4063 46.6875 25.3125C49.5937 28.2187 51.0469 31.7812 51.0469 36C51.0469 40.2188 49.5937 43.7813 46.6875 46.6875C43.7813 49.5937 40.2188 51.0469 36 51.0469ZM38.9531 9V2.95312C38.9531 0.984375 37.9688 0 36 0C34.0312 0 33.0469 0.984375 33.0469 2.95312V9C33.0469 10.9688 34.0312 11.9531 36 11.9531C37.9688 11.9531 38.9531 10.9688 38.9531 9ZM11.9531 36C11.9531 34.0312 10.9688 33.0469 9 33.0469H2.95312C0.984375 33.0469 0 34.0312 0 36C0 37.9688 0.984375 38.9531 2.95312 38.9531H9C10.9688 38.9531 11.9531 37.9688 11.9531 36ZM69.0469 33.0469H63C61.0312 33.0469 60.0469 34.0312 60.0469 36C60.0469 37.9688 61.0312 38.9531 63 38.9531H69.0469C71.0156 38.9531 72 37.9688 72 36C72 34.0312 71.0156 33.0469 69.0469 33.0469ZM36 60.0469C34.0312 60.0469 33.0469 61.0312 33.0469 63V69.0469C33.0469 71.0156 34.0312 72 36 72C37.9688 72 38.9531 71.0156 38.9531 69.0469V63C38.9531 61.0312 37.9688 60.0469 36 60.0469ZM59.0625 17.1562L62.1562 14.0625C63.4687 12.75 63.4687 11.3438 62.1562 9.84375C60.6562 8.53125 59.25 8.53125 57.9375 9.84375L54.8438 12.9375C53.5313 14.25 53.5313 15.6562 54.8438 17.1562C55.5938 17.7188 56.2969 18 56.9531 18C57.7969 18 58.5 17.7188 59.0625 17.1562ZM15.0469 18C15.7031 18 16.4062 17.7188 17.1562 17.1562C18.4687 15.6562 18.4687 14.25 17.1562 12.9375L14.0625 9.84375C12.75 8.53125 11.3438 8.53125 9.84375 9.84375C8.53125 11.3438 8.53125 12.75 9.84375 14.0625L12.9375 17.1562C13.5 17.7188 14.2031 18 15.0469 18ZM59.0625 54.8438C57.75 53.5313 56.3438 53.5313 54.8438 54.8438C53.5313 56.3438 53.5313 57.75 54.8438 59.0625L57.9375 62.1562C58.5 62.7188 59.2031 63 60.0469 63C60.7031 63 61.4062 62.7188 62.1562 62.1562C63.4687 60.6562 63.4687 59.25 62.1562 57.9375L59.0625 54.8438ZM12.9375 54.8438L9.84375 57.9375C8.53125 59.25 8.53125 60.6562 9.84375 62.1562C10.5938 62.7188 11.2969 63 11.9531 63C12.7969 63 13.5 62.7188 14.0625 62.1562L17.1562 59.0625C18.4687 57.75 18.4687 56.3438 17.1562 54.8438C15.6562 53.5313 14.25 53.5313 12.9375 54.8438Z" fill="url(#paint0_linear)"/>
<defs>
<linearGradient id="paint0_linear" x1="-2.6087" y1="33.8824" x2="74.6087" y2="33.8824" gradientUnits="userSpaceOnUse">
<stop stop-color="#3480C1"/>
<stop offset="1" stop-color="#0DCA4F"/>
</linearGradient>
</defs>
</svg>
