<svg width="42" height="42" viewBox="0 0 42 42" fill="none" xmlns="http://www.w3.org/2000/svg">
<path d="M12.4688 11.4844H29.5312C29.7117 11.4844 29.8594 11.3367 29.8594 11.1562C29.8594 9.51562 29.4984 8.01035 28.7971 6.72246C28.0916 5.43047 27.0539 4.39277 25.7619 3.6873C24.474 2.98594 22.9688 2.625 21.3281 2.625H20.6719C19.0312 2.625 17.526 2.98594 16.2381 3.6873C14.9461 4.39277 13.9084 5.43047 13.2029 6.72246C12.5016 8.01035 12.1406 9.51562 12.1406 11.1562C12.1406 11.3367 12.2883 11.4844 12.4688 11.4844Z" fill="url(#paint0_linear)"/>
<path d="M38.5547 21H32.4844V16.8984C35.6344 16.8984 38.1855 14.3473 38.1855 11.1973C38.1855 11.0168 38.0379 10.8691 37.8574 10.8691H35.3965C35.216 10.8691 35.0684 11.0168 35.0684 11.1973C35.0684 12.6246 33.9117 13.7812 32.4844 13.7812H9.51562C8.08828 13.7812 6.93164 12.6246 6.93164 11.1973C6.93164 11.0168 6.78398 10.8691 6.60352 10.8691H4.14258C3.96211 10.8691 3.81445 11.0168 3.81445 11.1973C3.81445 14.3473 6.36562 16.8984 9.51562 16.8984V21H3.44531C3.26484 21 3.11719 21.1477 3.11719 21.3281V23.625C3.11719 23.8055 3.26484 23.9531 3.44531 23.9531H9.51562V27.8906C9.51562 28.1572 9.52383 28.4238 9.54434 28.6822C6.73066 29.884 4.75781 32.6771 4.75781 35.9297C4.75781 36.1102 4.90547 36.2578 5.08594 36.2578H7.38281C7.56328 36.2578 7.71094 36.1102 7.71094 35.9297C7.71094 34.1168 8.69121 32.5295 10.1555 31.6764C10.4016 32.3818 10.7133 33.0545 11.0865 33.6861C12.0832 35.3883 13.5064 36.8115 15.2086 37.8082C16.3939 38.5014 17.7105 38.9895 19.1174 39.2232C19.2979 39.2232 19.4455 39.0756 19.4455 38.8951V19.8516C19.4455 19.6711 19.5932 19.5234 19.7736 19.5234H22.2346C22.415 19.5234 22.5627 19.6711 22.5627 19.8516V38.891C22.5627 39.0715 22.7104 39.2191 22.8908 39.2191C24.2977 38.9853 25.6143 38.4973 26.7996 37.8041C28.5018 36.8074 29.925 35.3842 30.9217 33.682C31.2949 33.0463 31.6066 32.3736 31.8527 31.6723C33.3088 32.5295 34.2891 34.1168 34.2891 35.9297C34.2891 36.1102 34.4367 36.2578 34.6172 36.2578H36.9141C37.0945 36.2578 37.2422 36.1102 37.2422 35.9297C37.2422 32.6771 35.2693 29.884 32.4557 28.6822C32.4721 28.4197 32.4844 28.1572 32.4844 27.8906V23.9531H38.5547C38.7352 23.9531 38.8828 23.8055 38.8828 23.625V21.3281C38.8828 21.1477 38.7352 21 38.5547 21Z" fill="url(#paint1_linear)"/>
<defs>
<linearGradient id="paint0_linear" x1="11.4986" y1="6.79412" x2="30.5014" y2="6.79412" gradientUnits="userSpaceOnUse">
<stop stop-color="#1B73BE"/>
<stop offset="1" stop-color="#0DCA4F"/>
</linearGradient>
<linearGradient id="paint1_linear" x1="1.82133" y1="24.2123" x2="40.1787" y2="24.2123" gradientUnits="userSpaceOnUse">
<stop stop-color="#1B73BE"/>
<stop offset="1" stop-color="#0DCA4F"/>
</linearGradient>
</defs>
</svg>
