<svg width="75" height="75" viewBox="0 0 75 75" fill="none" xmlns="http://www.w3.org/2000/svg">
<path d="M41.0587 13.0485C41.0587 14.0247 41.7665 14.8486 42.7134 15.0859C50.8139 17.1156 57.4324 23.7341 59.4622 31.8346C59.6994 32.7815 60.5233 33.4893 61.4995 33.4893H72.599C73.7822 33.4893 74.7111 32.4653 74.5234 31.2972C71.962 15.3558 59.1922 2.58601 43.2509 0.0246204C42.0827 -0.163072 41.0587 0.765863 41.0587 1.94899V13.0485Z" fill="url(#paint0_linear)"/>
<path d="M61.4996 40.9893C60.5234 40.9893 59.6995 41.6978 59.4631 42.6449C57.0223 52.427 48.0402 59.5481 37.5 59.5481C25.0912 59.5481 15 49.4568 15 37.0481C15 26.5079 22.1211 17.5258 31.9032 15.085C32.8503 14.8486 33.5587 14.0247 33.5587 13.0485V1.94905C33.5587 0.765904 32.5345 -0.163036 31.3662 0.0240573C13.5175 2.88247 0 18.3946 0 37.0481C0 57.7256 16.8225 74.5481 37.5 74.5481C56.1534 74.5481 71.6656 61.0306 74.524 43.1818C74.7111 42.0136 73.7822 40.9893 72.599 40.9893H61.4996Z" fill="url(#paint1_linear)"/>
<defs>
<linearGradient id="paint0_linear" x1="-2.70102" y1="35.0815" x2="77.2491" y2="35.0815" gradientUnits="userSpaceOnUse">
<stop stop-color="#3480C1"/>
<stop offset="1" stop-color="#0DCA4F"/>
</linearGradient>
<linearGradient id="paint1_linear" x1="-2.70102" y1="35.0815" x2="77.2491" y2="35.0815" gradientUnits="userSpaceOnUse">
<stop stop-color="#3480C1"/>
<stop offset="1" stop-color="#0DCA4F"/>
</linearGradient>
</defs>
</svg>
