<svg width="42" height="42" viewBox="0 0 42 42" fill="none" xmlns="http://www.w3.org/2000/svg">
<path d="M40.9746 17.6367L34.125 10.7461V6.52148C34.125 6.16602 33.9951 5.8584 33.7354 5.59863C33.4756 5.33887 33.168 5.20898 32.8125 5.20898H28.6699L23.8711 1.10742C23.5703 0.806641 23.2354 0.567383 22.8662 0.389648C22.4971 0.211914 22.1074 0.0957031 21.6973 0.0410156C21.2871 -0.0136719 20.877 -0.0136719 20.4668 0.0410156C20.0566 0.0957031 19.667 0.211914 19.2979 0.389648C18.9287 0.567383 18.5937 0.806641 18.293 1.10742L13.5352 5.20898H9.1875C8.83203 5.20898 8.52441 5.33887 8.26465 5.59863C8.00488 5.8584 7.875 6.16602 7.875 6.52148V10.8281L1.18945 17.5137C0.396484 18.0332 0 18.7715 0 19.7285V39.375C0 40.1133 0.259766 40.7353 0.779297 41.2412C1.29883 41.7471 1.91406 42 2.625 42H39.375C39.8398 42 40.2773 41.8838 40.6875 41.6514C41.0977 41.4189 41.4189 41.0977 41.6514 40.6875C41.8838 40.2773 42 39.8398 42 39.375V19.6055C41.8405 18.8082 41.5436 18.2057 40.9746 17.6367ZM11.0332 29.7773L2.625 37.5703V22.3535L11.0332 29.7773ZM19.8516 25.1426C20.1523 24.8965 20.4941 24.7734 20.877 24.7734C21.2598 24.7734 21.5879 24.8828 21.8613 25.1016L37.6113 39.375H4.51172C9.64391 34.6376 14.7336 29.8897 19.8516 25.1426ZM31.0898 29.9414L39.375 22.5996V37.4062L31.0898 29.9414ZM36.832 17.1035L39.0469 19.3594L34.125 23.748V14.3965L36.832 17.1035ZM20.1387 2.95312C20.4121 2.70703 20.7266 2.58398 21.082 2.58398C21.4265 2.58398 21.7603 2.74107 22.0254 2.95312L24.6504 5.20898H17.5137L20.1387 2.95312ZM31.5 7.83398V26.0859L29.1621 28.1777L23.543 23.0918C23.3789 22.9551 23.2012 22.832 23.0098 22.7227C22.8184 22.6133 22.627 22.5244 22.4355 22.4561C22.2441 22.3877 22.0459 22.3262 21.8408 22.2715C21.6357 22.2168 21.4238 22.1826 21.2051 22.1689C20.9863 22.1553 20.7744 22.1553 20.5693 22.1689C20.3643 22.1826 20.1523 22.2168 19.9336 22.2715C19.7148 22.3262 19.5098 22.3945 19.3184 22.4766C19.127 22.5586 18.9287 22.6543 18.7236 22.7637C18.5186 22.873 18.334 22.9961 18.1699 23.1328L12.9609 27.9727L10.5 25.7988V7.83398H31.5ZM4.26562 18.1699L7.875 14.5605V23.4609L3.07617 19.2363L4.18359 18.1699H4.26562Z" fill="url(#paint0_linear)"/>
<defs>
<linearGradient id="paint0_linear" x1="-1.52174" y1="19.7647" x2="43.5217" y2="19.7647" gradientUnits="userSpaceOnUse">
<stop stop-color="#1B73BE"/>
<stop offset="1" stop-color="#0DCA4F"/>
</linearGradient>
</defs>
</svg>
