<svg width="83" height="45" viewBox="0 0 83 45" fill="none" xmlns="http://www.w3.org/2000/svg">
<path d="M7.5 30L9.375 30.2625L26.5125 13.125C26.1687 11.8658 26.1682 10.5374 26.5111 9.27791C26.854 8.01841 27.5278 6.87366 28.4625 5.9625C31.3875 3 36.1125 3 39.0375 5.9625C41.025 7.9125 41.6625 10.6875 40.9875 13.125L50.625 22.7625L52.5 22.5C53.175 22.5 53.8125 22.5 54.375 22.7625L67.7625 9.375C67.5 8.8125 67.5 8.175 67.5 7.5C67.5 5.51088 68.2902 3.60322 69.6967 2.1967C71.1032 0.790176 73.0109 0 75 0C76.9891 0 78.8968 0.790176 80.3033 2.1967C81.7098 3.60322 82.5 5.51088 82.5 7.5C82.5 9.48912 81.7098 11.3968 80.3033 12.8033C78.8968 14.2098 76.9891 15 75 15C74.325 15 73.6875 15 73.125 14.7375L59.7375 28.125C60 28.6875 60 29.325 60 30C60 31.9891 59.2098 33.8968 57.8033 35.3033C56.3968 36.7098 54.4891 37.5 52.5 37.5C50.5109 37.5 48.6032 36.7098 47.1967 35.3033C45.7902 33.8968 45 31.9891 45 30L45.2625 28.125L35.625 18.4875C34.425 18.75 33.075 18.75 31.875 18.4875L14.7375 35.625L15 37.5C15 39.4891 14.2098 41.3968 12.8033 42.8033C11.3968 44.2098 9.48912 45 7.5 45C5.51088 45 3.60322 44.2098 2.1967 42.8033C0.790176 41.3968 0 39.4891 0 37.5C0 35.5109 0.790176 33.6032 2.1967 32.1967C3.60322 30.7902 5.51088 30 7.5 30V30Z" fill="url(#paint0_linear)"/>
<defs>
<linearGradient id="paint0_linear" x1="-2.98913" y1="21.1765" x2="85.4891" y2="21.1765" gradientUnits="userSpaceOnUse">
<stop stop-color="#3480C1"/>
<stop offset="1" stop-color="#0DCA4F"/>
</linearGradient>
</defs>
</svg>
