<svg width="170" height="50" viewBox="0 0 170 50" fill="none" xmlns="http://www.w3.org/2000/svg">
<path d="M0 13.798C0 7.61132 4.67298 2.57824 10.7087 2.57824V0L18.0709 3.71622L10.7087 7.43243V5.06757C6.01424 5.06757 2.42857 8.98614 2.42857 13.798V36.202C2.42857 41.0138 6.23415 44.9146 10.9286 44.9146H144.5V47.404H10.9286C4.89288 47.404 0 42.3887 0 36.202V13.798Z" fill="url(#paint0_linear)"/>
<path d="M170 36.202C170 42.3887 165.327 47.404 159.291 47.404V50L152.598 46.2838L159.291 42.2297V44.9147C163.986 44.9147 167.571 41.0139 167.571 36.202V13.798C167.571 8.98616 163.766 5.08537 159.071 5.08537L25.5 5.08536V2.59603L159.071 2.59604C165.107 2.59604 170 7.61134 170 13.798V36.202Z" fill="url(#paint1_linear)"/>
<path d="M13.3858 34.7075V14.8649H21.8946C23.3176 14.8649 24.5457 15.1215 25.5788 15.6346C26.7679 16.2238 27.7133 17.0696 28.4151 18.172C29.1168 19.2553 29.4677 20.4527 29.4677 21.7642C29.4677 23.0756 29.1168 24.2825 28.4151 25.3849C27.7328 26.4873 26.7971 27.333 25.6081 27.9222C24.5944 28.4354 23.3566 28.692 21.8946 28.692H18.7075V34.7075H13.3858Z" fill="url(#paint2_linear)"/>
<path d="M35.498 34.7075V14.8649H36.5798V33.6526H50.7611V34.7075H35.498Z" fill="url(#paint3_linear)"/>
<path d="M62.8732 14.8649H64.0136L72.3762 34.7075H71.2066L68.4581 28.1503H58.4288L55.651 34.7075H54.5107L62.8732 14.8649ZM58.8674 27.124H68.0194L63.4288 16.2333L58.8674 27.124Z" fill="url(#paint4_linear)"/>
<path d="M93.2895 14.8649V15.9197H85.5994V34.7075H84.5468V15.9197H76.8567V14.8649H93.2895Z" fill="url(#paint5_linear)"/>
<path d="M98.501 14.8649H99.5829V27.124C99.5829 28.3784 99.9045 29.5378 100.548 30.6021C101.191 31.6665 102.059 32.5123 103.15 33.1395C104.242 33.7667 105.431 34.0803 106.717 34.0803C108.004 34.0803 109.193 33.7667 110.285 33.1395C111.376 32.5123 112.244 31.6665 112.887 30.6021C113.53 29.5378 113.852 28.3784 113.852 27.124V14.8649H114.934V27.124C114.934 28.5684 114.563 29.9084 113.823 31.1438C113.082 32.3602 112.078 33.3295 110.811 34.0518C109.563 34.774 108.199 35.1351 106.717 35.1351C105.236 35.1351 103.862 34.774 102.595 34.0518C101.347 33.3295 100.353 32.3602 99.6121 31.1438C98.8714 29.9084 98.501 28.5684 98.501 27.124V14.8649Z" fill="url(#paint6_linear)"/>
<path d="M132.455 15.4351C133.371 15.8912 134.073 16.5184 134.561 17.3167C135.067 18.115 135.321 19.0083 135.321 19.9966C135.321 20.9279 135.067 21.7927 134.561 22.5909C134.073 23.3702 133.391 23.9879 132.514 24.4441C133.547 24.7862 134.405 25.4134 135.087 26.3257C135.769 27.238 136.11 28.2453 136.11 29.3477C136.11 30.336 135.857 31.2483 135.35 32.0846C134.843 32.9209 134.171 33.5671 133.332 34.0233C132.904 34.2513 132.426 34.4224 131.9 34.5364C131.373 34.6505 130.672 34.7075 129.794 34.7075H121.256V14.8649H129.385C130.672 14.8649 131.695 15.0549 132.455 15.4351ZM131.987 23.6173C132.689 23.2752 133.245 22.781 133.654 22.1348C134.063 21.4886 134.268 20.7758 134.268 19.9966C134.268 19.1223 134.034 18.362 133.566 17.7158C133.099 17.0506 132.504 16.5659 131.783 16.2618C131.237 16.0338 130.321 15.9197 129.034 15.9197H122.309V24.0734H129.561C130.574 24.0734 131.383 23.9214 131.987 23.6173ZM132.689 33.225C133.41 32.8639 133.985 32.3412 134.414 31.657C134.843 30.9537 135.058 30.1935 135.058 29.3762C135.058 28.5209 134.833 27.7512 134.385 27.0669C133.937 26.3637 133.332 25.841 132.572 25.4989C131.987 25.2328 131.198 25.0998 130.204 25.0998H122.309V33.6812H129.824C130.564 33.6812 131.149 33.6431 131.578 33.5671C132.007 33.4911 132.377 33.3771 132.689 33.225Z" fill="url(#paint7_linear)"/>
<path d="M156.614 14.8649V15.9197H150.532V33.6526H156.614V34.7075H143.427V33.6526H149.48V15.9197H143.427V14.8649H156.614Z" fill="url(#paint8_linear)"/>
<defs>
<linearGradient id="paint0_linear" x1="-6.15942" y1="23.5294" x2="176.159" y2="23.5294" gradientUnits="userSpaceOnUse">
<stop stop-color="#1C4B73"/>
<stop offset="1" stop-color="#4388C4"/>
</linearGradient>
<linearGradient id="paint1_linear" x1="-6.15942" y1="23.5294" x2="176.159" y2="23.5294" gradientUnits="userSpaceOnUse">
<stop stop-color="#1C4B73"/>
<stop offset="1" stop-color="#4388C4"/>
</linearGradient>
<linearGradient id="paint2_linear" x1="-6.15942" y1="23.5294" x2="176.159" y2="23.5294" gradientUnits="userSpaceOnUse">
<stop stop-color="#1C4B73"/>
<stop offset="1" stop-color="#4388C4"/>
</linearGradient>
<linearGradient id="paint3_linear" x1="-6.15942" y1="23.5294" x2="176.159" y2="23.5294" gradientUnits="userSpaceOnUse">
<stop stop-color="#1C4B73"/>
<stop offset="1" stop-color="#4388C4"/>
</linearGradient>
<linearGradient id="paint4_linear" x1="-6.15942" y1="23.5294" x2="176.159" y2="23.5294" gradientUnits="userSpaceOnUse">
<stop stop-color="#1C4B73"/>
<stop offset="1" stop-color="#4388C4"/>
</linearGradient>
<linearGradient id="paint5_linear" x1="-6.15942" y1="23.5294" x2="176.159" y2="23.5294" gradientUnits="userSpaceOnUse">
<stop stop-color="#1C4B73"/>
<stop offset="1" stop-color="#4388C4"/>
</linearGradient>
<linearGradient id="paint6_linear" x1="-6.15942" y1="23.5294" x2="176.159" y2="23.5294" gradientUnits="userSpaceOnUse">
<stop stop-color="#1C4B73"/>
<stop offset="1" stop-color="#4388C4"/>
</linearGradient>
<linearGradient id="paint7_linear" x1="-6.15942" y1="23.5294" x2="176.159" y2="23.5294" gradientUnits="userSpaceOnUse">
<stop stop-color="#1C4B73"/>
<stop offset="1" stop-color="#4388C4"/>
</linearGradient>
<linearGradient id="paint8_linear" x1="-6.15942" y1="23.5294" x2="176.159" y2="23.5294" gradientUnits="userSpaceOnUse">
<stop stop-color="#1C4B73"/>
<stop offset="1" stop-color="#4388C4"/>
</linearGradient>
</defs>
</svg>
