<svg width="28" height="28" viewBox="0 0 28 28" fill="none" xmlns="http://www.w3.org/2000/svg">
<path d="M24.5 1.75C24.9641 1.75 25.4092 1.93437 25.7374 2.26256C26.0656 2.59075 26.25 3.03587 26.25 3.5V24.5C26.25 24.9641 26.0656 25.4092 25.7374 25.7374C25.4092 26.0656 24.9641 26.25 24.5 26.25H3.5C3.03587 26.25 2.59075 26.0656 2.26256 25.7374C1.93437 25.4092 1.75 24.9641 1.75 24.5V3.5C1.75 3.03587 1.93437 2.59075 2.26256 2.26256C2.59075 1.93437 3.03587 1.75 3.5 1.75H24.5ZM3.5 0C2.57174 0 1.6815 0.368749 1.02513 1.02513C0.368749 1.6815 0 2.57174 0 3.5L0 24.5C0 25.4283 0.368749 26.3185 1.02513 26.9749C1.6815 27.6313 2.57174 28 3.5 28H24.5C25.4283 28 26.3185 27.6313 26.9749 26.9749C27.6313 26.3185 28 25.4283 28 24.5V3.5C28 2.57174 27.6313 1.6815 26.9749 1.02513C26.3185 0.368749 25.4283 0 24.5 0L3.5 0Z" fill="url(#paint0_linear)"/>
<path d="M14 7C14.2321 7 14.4546 7.09219 14.6187 7.25628C14.7828 7.42038 14.875 7.64294 14.875 7.875V13.125H20.125C20.3571 13.125 20.5796 13.2172 20.7437 13.3813C20.9078 13.5454 21 13.7679 21 14C21 14.2321 20.9078 14.4546 20.7437 14.6187C20.5796 14.7828 20.3571 14.875 20.125 14.875H14.875V20.125C14.875 20.3571 14.7828 20.5796 14.6187 20.7437C14.4546 20.9078 14.2321 21 14 21C13.7679 21 13.5454 20.9078 13.3813 20.7437C13.2172 20.5796 13.125 20.3571 13.125 20.125V14.875H7.875C7.64294 14.875 7.42038 14.7828 7.25628 14.6187C7.09219 14.4546 7 14.2321 7 14C7 13.7679 7.09219 13.5454 7.25628 13.3813C7.42038 13.2172 7.64294 13.125 7.875 13.125H13.125V7.875C13.125 7.64294 13.2172 7.42038 13.3813 7.25628C13.5454 7.09219 13.7679 7 14 7Z" fill="url(#paint1_linear)"/>
<defs>
<linearGradient id="paint0_linear" x1="-1.01449" y1="13.1765" x2="29.0145" y2="13.1765" gradientUnits="userSpaceOnUse">
<stop stop-color="#3E688C"/>
<stop offset="1" stop-color="#03A63C"/>
</linearGradient>
<linearGradient id="paint1_linear" x1="6.49275" y1="13.5882" x2="21.5072" y2="13.5882" gradientUnits="userSpaceOnUse">
<stop stop-color="#3E688C"/>
<stop offset="1" stop-color="#03A63C"/>
</linearGradient>
</defs>
</svg>
